<svg id="calendar_1_" data-name="calendar (1)" xmlns="http://www.w3.org/2000/svg" width="22" height="22" viewBox="0 0 22 22">
  <g id="Group_2" data-name="Group 2">
    <g id="Group_1" data-name="Group 1">
      <path id="Path_1" data-name="Path 1" d="M279,280.738a1.721,1.721,0,0,0,1.719,1.719h2.02a1.721,1.721,0,0,0,1.719-1.719v-2.02A1.721,1.721,0,0,0,282.738,277h-2.02A1.721,1.721,0,0,0,279,278.719Zm1.719-2.02h2.02v2.02h-2.021Z" transform="translate(-267.012 -265.098)"/>
      <circle id="Ellipse_1" data-name="Ellipse 1" cx="0.859" cy="0.859" r="0.859" transform="translate(15.727 8.164)"/>
      <circle id="Ellipse_2" data-name="Ellipse 2" cx="0.859" cy="0.859" r="0.859" transform="translate(11.988 8.164)"/>
      <path id="Path_2" data-name="Path 2" d="M21.141,15.125A.859.859,0,0,0,22,14.266V5.156a3.441,3.441,0,0,0-3.437-3.437H17.445V.859a.859.859,0,0,0-1.719,0v.859h-3.91V.859a.859.859,0,0,0-1.719,0v.859H6.23V.859a.859.859,0,0,0-1.719,0v.859H3.438A3.441,3.441,0,0,0,0,5.156V18.563A3.441,3.441,0,0,0,3.438,22H18.563A3.441,3.441,0,0,0,22,18.563a.859.859,0,0,0-1.719,0,1.721,1.721,0,0,1-1.719,1.719H3.438a1.721,1.721,0,0,1-1.719-1.719V5.156A1.721,1.721,0,0,1,3.438,3.438H4.512V4.3a.859.859,0,0,0,1.719,0V3.438H10.1V4.3a.859.859,0,0,0,1.719,0V3.438h3.91V4.3a.859.859,0,0,0,1.719,0V3.438h1.117a1.721,1.721,0,0,1,1.719,1.719v9.109A.859.859,0,0,0,21.141,15.125Z"/>
      <circle id="Ellipse_3" data-name="Ellipse 3" cx="0.859" cy="0.859" r="0.859" transform="translate(4.512 15.641)"/>
      <circle id="Ellipse_4" data-name="Ellipse 4" cx="0.859" cy="0.859" r="0.859" transform="translate(4.512 8.164)"/>
      <circle id="Ellipse_5" data-name="Ellipse 5" cx="0.859" cy="0.859" r="0.859" transform="translate(4.512 11.902)"/>
      <circle id="Ellipse_6" data-name="Ellipse 6" cx="0.859" cy="0.859" r="0.859" transform="translate(8.25 11.902)"/>
      <circle id="Ellipse_7" data-name="Ellipse 7" cx="0.859" cy="0.859" r="0.859" transform="translate(8.25 8.164)"/>
      <circle id="Ellipse_8" data-name="Ellipse 8" cx="0.859" cy="0.859" r="0.859" transform="translate(8.25 15.641)"/>
    </g>
  </g>
</svg>
