<svg xmlns="http://www.w3.org/2000/svg" width="23.289" height="22" viewBox="0 0 23.289 22">
  <g id="attach" transform="translate(0.004 -13.708)">
    <g id="Group_1" data-name="Group 1" transform="translate(-0.004 13.708)">
      <path id="Path_1" data-name="Path 1" d="M21.106,15.886a7.454,7.454,0,0,0-10.53,0L1.554,24.911A5.318,5.318,0,1,0,9.076,32.43l8.273-8.274a3.191,3.191,0,0,0-4.513-4.513L7.423,25.056a1.064,1.064,0,0,0,1.5,1.5l5.41-5.414a1.066,1.066,0,0,1,1.507,1.507l-8.275,8.27a3.191,3.191,0,1,1-4.513-4.513l9.025-9.025A5.32,5.32,0,0,1,19.6,24.911l-9.025,9.025a1.063,1.063,0,0,0,1.5,1.5l9.025-9.025A7.446,7.446,0,0,0,21.106,15.886Z" transform="translate(0.004 -13.708)"/>
    </g>
  </g>
</svg>
