<svg xmlns="http://www.w3.org/2000/svg" width="24.933" height="22" viewBox="0 0 24.933 22">
  <g id="briefcase" transform="translate(0 -30.125)">
    <path id="Path_3" data-name="Path 3" d="M21.2,142.308a13.761,13.761,0,0,1-5.65,2.431,3.117,3.117,0,0,1-6.174,0,13.761,13.761,0,0,1-5.65-2.431A8.533,8.533,0,0,1,0,135.5v13.27a3.6,3.6,0,0,0,3.6,3.6H21.335a3.6,3.6,0,0,0,3.6-3.6V135.5a8.533,8.533,0,0,1-3.729,6.808Z" transform="translate(0 -100.244)"/>
    <path id="Path_4" data-name="Path 4" d="M37.887,43V41.672a.731.731,0,0,1,.731-.731h4.776a.731.731,0,0,1,.731.731V43c4.555-.988,7.887-4.084,7.887-7.742v-.731H46.136V33.075a2.961,2.961,0,0,0-2.95-2.95H38.823a2.961,2.961,0,0,0-2.95,2.95v1.451H30v.731C30,38.912,33.333,42.009,37.887,43Zm-.552-9.923a1.49,1.49,0,0,1,1.488-1.488h4.363a1.49,1.49,0,0,1,1.488,1.488v1.451h-7.34Z" transform="translate(-28.538)"/>
    <path id="Path_5" data-name="Path 5" d="M225.28,282.215h-3.314v1.658a1.658,1.658,0,1,0,3.314,0Z" transform="translate(-211.157 -239.814)"/>
  </g>
</svg>
