<svg xmlns="http://www.w3.org/2000/svg" width="20.811" height="22" viewBox="0 0 20.811 22">
  <g id="delete" transform="translate(-13.838)">
    <g id="Group_28" data-name="Group 28" transform="translate(15.923 4.233)">
      <g id="Group_27" data-name="Group 27" transform="translate(0)">
        <path id="Path_50" data-name="Path 50" d="M77.219,98.512l-1.4,15.983H65.533l-1.4-15.983-1.777.156,1.428,16.273a1.5,1.5,0,0,0,1.482,1.338H76.086a1.5,1.5,0,0,0,1.483-1.349L79,98.668Z" transform="translate(-62.354 -98.512)"/>
      </g>
    </g>
    <g id="Group_30" data-name="Group 30" transform="translate(19.487)">
      <g id="Group_29" data-name="Group 29" transform="translate(0)">
        <path id="Path_51" data-name="Path 51" d="M153.324,0h-6.541A1.488,1.488,0,0,0,145.3,1.487V4.311h1.784V1.784h5.946V4.311h1.784V1.486A1.488,1.488,0,0,0,153.324,0Z" transform="translate(-145.297)"/>
      </g>
    </g>
    <g id="Group_32" data-name="Group 32" transform="translate(13.838 3.419)">
      <g id="Group_31" data-name="Group 31" transform="translate(0)">
        <path id="Path_52" data-name="Path 52" d="M33.757,79.568H14.73a.892.892,0,0,0,0,1.784H33.757a.892.892,0,1,0,0-1.784Z" transform="translate(-13.838 -79.568)"/>
      </g>
    </g>
  </g>
</svg>
