<svg xmlns="http://www.w3.org/2000/svg" width="22.291" height="22" viewBox="0 0 22.291 22">
  <g id="double" transform="translate(-0.003 -8.226)">
    <path id="Path_11" data-name="Path 11" d="M428.091,30.01a1.7,1.7,0,0,0,1.038.487,1.743,1.743,0,0,0,1.113-.283,1.641,1.641,0,0,0,.247-.2h0l4.637-4.637a1.7,1.7,0,0,0-2.4-2.4l-1.75,1.738V10.292a1.7,1.7,0,1,0-3.395,0V24.71l-1.786-1.786a1.7,1.7,0,0,0-2.4,2.4l4.685,4.685Z" transform="translate(-413.329 -0.324)"/>
    <path id="Path_12" data-name="Path 12" d="M1.7,16.343a1.684,1.684,0,0,0,1.2-.5L4.682,14.06V28.478a1.7,1.7,0,1,0,3.395,0V14.06L9.818,15.8a1.7,1.7,0,0,0,2.4-2.4l-.369-.369c-.3-.3-.6-.6-.9-.9q-.584-.577-1.163-1.164c-.381-.385-.774-.758-1.153-1.148S7.89,9.072,7.5,8.719a1.63,1.63,0,0,0-1.9-.258,4.974,4.974,0,0,0-.984.862c-.374.369-.741.745-1.111,1.118-.442.444-.887.885-1.331,1.326-.371.376-.746.751-1.12,1.127l-.543.541L.5,13.444a1.7,1.7,0,0,0,1.2,2.9Z" transform="translate(0 0.006)"/>
  </g>
</svg>
