<svg xmlns="http://www.w3.org/2000/svg" width="21.92" height="22" viewBox="0 0 21.92 22">
  <g id="file" transform="translate(-0.927 0.001)">
    <path id="Path_17" data-name="Path 17" d="M368.927,220.854h4.04v7.137h-4.04Z" transform="translate(-352.183 -211.362)"/>
    <path id="Path_18" data-name="Path 18" d="M208.927,220.854h4.04v7.137h-4.04Z" transform="translate(-199.06 -211.362)"/>
    <path id="Path_19" data-name="Path 19" d="M21.558,416.854H2.216a1.291,1.291,0,0,0-1.289,1.289v1.5a1.291,1.291,0,0,0,1.289,1.289H21.558a1.291,1.291,0,0,0,1.289-1.289v-1.5a1.291,1.291,0,0,0-1.289-1.289Z" transform="translate(0 -398.938)"/>
    <path id="Path_20" data-name="Path 20" d="M22.039,4.048,12.366.093a1.284,1.284,0,0,0-.963,0L1.736,4.048a1.284,1.284,0,0,0-.809,1.2V6.912A1.291,1.291,0,0,0,2.216,8.2H21.558a1.291,1.291,0,0,0,1.289-1.289V5.245a1.284,1.284,0,0,0-.808-1.2Zm-9.508.76a.649.649,0,0,1-1.289,0V3.429a.649.649,0,0,1,1.289,0Z" transform="translate(0 0)"/>
    <path id="Path_21" data-name="Path 21" d="M48.927,220.854h4.04v7.137h-4.04Z" transform="translate(-45.937 -211.362)"/>
  </g>
</svg>
