<svg xmlns="http://www.w3.org/2000/svg" width="21.958" height="22" viewBox="0 0 21.958 22">
  <g id="flag" transform="translate(0.002 0.051)">
    <g id="Group_13" data-name="Group 13" transform="translate(-0.002 -0.051)">
      <path id="Path_22" data-name="Path 22" d="M5.561,29.053l.4-.113a.732.732,0,0,0,.508-.9L1.849,11.488a.914.914,0,0,0-1.127-.635l-.056.015A.914.914,0,0,0,.031,12l4.626,16.55a.732.732,0,0,0,.9.508Z" transform="translate(0.002 -7.08)"/>
      <path id="Path_23" data-name="Path 23" d="M25.866,11.355a17.523,17.523,0,0,1-4.03-2.773.361.361,0,0,1-.1-.367,51.842,51.842,0,0,0,1.331-6.887c.045-.386-.162-.5-.383-.236C18.368,6.25,10.91.151,6.47,4.837a1.512,1.512,0,0,1,.125.314l3,10.743c4.447-4.629,11.879,1.432,16.182-3.712C26,11.917,26.04,11.431,25.866,11.355Z" transform="translate(-4.016 -0.949)"/>
    </g>
  </g>
</svg>
