<svg xmlns="http://www.w3.org/2000/svg" width="19.331" height="22" viewBox="0 0 19.331 22">
  <g id="location" transform="translate(-31)">
    <g id="Group_15" data-name="Group 15" transform="translate(33.578 0)">
      <g id="Group_14" data-name="Group 14" transform="translate(0)">
        <path id="Path_24" data-name="Path 24" d="M98.088,0a7.085,7.085,0,0,0-5.762,11.212l5.219,8.145a.644.644,0,0,0,1.085,0l5.236-8.171A7.088,7.088,0,0,0,98.088,0Zm0,10.31a3.222,3.222,0,1,1,3.222-3.222A3.222,3.222,0,0,1,98.088,10.31Z" transform="translate(-91 0)"/>
      </g>
    </g>
    <g id="Group_17" data-name="Group 17" transform="translate(31 14.814)">
      <g id="Group_16" data-name="Group 16" transform="translate(0 0)">
        <path id="Path_25" data-name="Path 25" d="M45.7,344.7l-3.245,5.073a2.13,2.13,0,0,1-3.586,0l-3.25-5.073c-2.859.66-4.622,1.873-4.622,3.32,0,2.512,4.98,3.866,9.666,3.866s9.666-1.355,9.666-3.866C50.331,346.566,48.566,345.354,45.7,344.7Z" transform="translate(-31 -344.7)"/>
      </g>
    </g>
  </g>
</svg>
