<svg xmlns="http://www.w3.org/2000/svg" width="22" height="22" viewBox="0 0 22 22">
  <g id="map" transform="translate(0 -0.999)">
    <g id="Group_19" data-name="Group 19" transform="translate(0 0.999)">
      <g id="Group_18" data-name="Group 18" transform="translate(0 0)">
        <path id="Path_26" data-name="Path 26" d="M16.712,313.483a.916.916,0,1,0-.423,1.783c2.847.676,3.879,1.675,3.879,2.183,0,1.1-3.655,2.75-9.166,2.75s-9.166-1.655-9.166-2.75c0-.508,1.033-1.508,3.879-2.183a.916.916,0,1,0-.423-1.783C1.88,314.292,0,315.7,0,317.449c0,3.008,5.535,4.583,11,4.583s11-1.575,11-4.583C22,315.7,20.124,314.292,16.712,313.483Z" transform="translate(0 -300.032)"/>
        <path id="Path_27" data-name="Path 27" d="M235.6,130.848a.917.917,0,1,0-.917-.917A.917.917,0,0,0,235.6,130.848Z" transform="translate(-224.596 -123.514)"/>
        <path id="Path_28" data-name="Path 28" d="M111.911,18.08l.373.746a.917.917,0,0,0,1.641,0l.79-1.58a63.426,63.426,0,0,1,3.294-5.59l.523-.822a6.417,6.417,0,1,0-10.6.376,46.119,46.119,0,0,1,3.977,6.87ZM113.1,4.666a2.75,2.75,0,1,1-2.75,2.75,2.75,2.75,0,0,1,2.75-2.75Z" transform="translate(-102.101 -0.999)"/>
      </g>
    </g>
  </g>
</svg>
