<svg xmlns="http://www.w3.org/2000/svg" width="88" height="22" viewBox="0 0 88 22">
  <g id="more" transform="translate(0 -192)">
    <g id="Group_34" data-name="Group 34" transform="translate(0 192)">
      <g id="Group_33" data-name="Group 33">
        <path id="Path_53" data-name="Path 53" d="M11,192a11,11,0,1,0,11,11A11.013,11.013,0,0,0,11,192Zm0,18.333A7.333,7.333,0,1,1,18.333,203,7.341,7.341,0,0,1,11,210.333Z" transform="translate(0 -192)"/>
      </g>
    </g>
    <g id="Group_36" data-name="Group 36" transform="translate(33 192)">
      <g id="Group_35" data-name="Group 35">
        <path id="Path_54" data-name="Path 54" d="M203,192a11,11,0,1,0,11,11A11.013,11.013,0,0,0,203,192Zm0,18.333A7.333,7.333,0,1,1,210.333,203,7.341,7.341,0,0,1,203,210.333Z" transform="translate(-192 -192)"/>
      </g>
    </g>
    <g id="Group_38" data-name="Group 38" transform="translate(66 192)">
      <g id="Group_37" data-name="Group 37">
        <path id="Path_55" data-name="Path 55" d="M395,192a11,11,0,1,0,11,11A11.014,11.014,0,0,0,395,192Zm0,18.333A7.333,7.333,0,1,1,402.333,203,7.341,7.341,0,0,1,395,210.333Z" transform="translate(-384 -192)"/>
      </g>
    </g>
  </g>
</svg>
