<svg id="name" xmlns="http://www.w3.org/2000/svg" width="16.029" height="22" viewBox="0 0 16.029 22">
  <path id="Path_32" data-name="Path 32" d="M121.936,139.516a1.817,1.817,0,1,1-1.817-1.817A1.817,1.817,0,0,1,121.936,139.516Zm0,0" transform="translate(-112.103 -130.485)"/>
  <path id="Path_33" data-name="Path 33" d="M94.152,260.1a3.2,3.2,0,0,0-2.311.964,3.432,3.432,0,0,0-.943,2.085H97.4a3.418,3.418,0,0,0-.943-2.085,3.2,3.2,0,0,0-2.311-.964Zm0,0" transform="translate(-86.137 -246.477)"/>
  <path id="Path_34" data-name="Path 34" d="M14.3,0H1.729A1.73,1.73,0,0,0,0,1.729V20.271A1.73,1.73,0,0,0,1.729,22H14.3a1.73,1.73,0,0,0,1.729-1.729V1.729A1.73,1.73,0,0,0,14.3,0ZM5.837,1.735h4.19a.367.367,0,0,1,0,.733H5.837a.367.367,0,0,1,0-.733ZM8.014,6.48A2.544,2.544,0,1,1,5.47,9.024,2.544,2.544,0,0,1,8.014,6.48ZM11.65,17.405H4.379a.364.364,0,0,1-.367-.367A4.19,4.19,0,0,1,5.18,14.068a3.984,3.984,0,0,1,5.668,0,4.19,4.19,0,0,1,1.167,2.965.364.364,0,0,1-.367.367Zm0,0" transform="translate(0 0)"/>
</svg>
