<svg xmlns="http://www.w3.org/2000/svg" width="21.948" height="22" viewBox="0 0 21.948 22">
  <g id="phone-call" transform="translate(-0.539 0.005)">
    <g id="Group_20" data-name="Group 20" transform="translate(0.539 -0.005)">
      <path id="Path_35" data-name="Path 35" d="M21.911,16.143l-3.069-3.069a2.041,2.041,0,0,0-3.4.768,2.088,2.088,0,0,1-2.417,1.315,9.465,9.465,0,0,1-5.7-5.7A1.99,1.99,0,0,1,8.642,7.039a2.041,2.041,0,0,0,.768-3.4L6.345.571a2.189,2.189,0,0,0-2.958,0L1.3,2.66c-2.084,2.192.219,8,5.371,13.154s10.962,7.563,13.154,5.371L21.911,19.1a2.189,2.189,0,0,0,0-2.96Z" transform="translate(-0.539 0.005)"/>
    </g>
  </g>
</svg>
