<svg xmlns="http://www.w3.org/2000/svg" width="22" height="22" viewBox="0 0 22 22">
  <g id="tickets" transform="translate(2.828 2.828)">
    <g id="Group_22" data-name="Group 22" transform="translate(-2.828 -2.828)">
      <path id="Path_37" data-name="Path 37" d="M15.871,4.762a2.262,2.262,0,0,1-3.2-3.2L11.11,0,0,11.11l1.563,1.562a2.262,2.262,0,0,1,3.2,3.2l1.562,1.563,11.11-11.11ZM8.7,6.23,7.975,5.5,8.7,4.781l.726.726Zm1.453,1.453-.726-.726.722-.722.726.726Zm1.453,1.453-.726-.726.722-.722.726.726Z" transform="translate(2.283 2.283)" fill="none"/>
      <path id="Path_38" data-name="Path 38" d="M10.565-.545-.545,10.565l1.563,1.563a2.261,2.261,0,1,1,3.2,3.2l1.563,1.563,11.11-11.11L15.325,4.215a2.261,2.261,0,1,1-3.2-3.2L10.565-.545M8.155,5.684,7.43,4.959l.722-.722.725.725-.722.722m1.45,1.45L8.88,6.409,9.6,5.687l.725.725-.722.722m1.45,1.451-.725-.725.722-.722.725.725-.722.722M10.565-2.828l3.846,3.846L13.27,2.159a.646.646,0,0,0,.914.914l1.141-1.141,3.846,3.846L5.778,19.172,1.932,15.325l1.141-1.141a.646.646,0,1,0-.914-.914L1.018,14.411l-3.846-3.846Z" transform="translate(2.828 2.828)"/>
    </g>
  </g>
</svg>
