<svg xmlns="http://www.w3.org/2000/svg" width="26.691" height="22" viewBox="0 0 26.691 22">
  <g id="time" transform="translate(0 -45)">
    <path id="Path_39" data-name="Path 39" d="M158.81,106a7.81,7.81,0,1,0,7.81,7.81A7.81,7.81,0,0,0,158.81,106Zm0,14.058a6.248,6.248,0,1,1,6.248-6.248,6.248,6.248,0,0,1-6.248,6.248Z" transform="translate(-143.138 -57.824)"/>
    <path id="Path_40" data-name="Path 40" d="M23.456,48.223A10.918,10.918,0,0,0,15.7,45h-.03a10.9,10.9,0,0,0-6.215,1.927H4.139a2.37,2.37,0,0,0,0,4.739H5.569A10.908,10.908,0,0,0,5.1,52.992H2.369a2.37,2.37,0,0,0,0,4.739H4.824a10.926,10.926,0,0,0,.3,1.326H5.085a2.37,2.37,0,1,0,0,4.739h2.86A10.99,10.99,0,1,0,23.456,48.223ZM15.672,65.41A9.341,9.341,0,0,1,8.84,62.477l-.231-.243H5.085a.808.808,0,0,1,0-1.615h2.3l-.439-1.076a9.368,9.368,0,0,1-.653-2.666l-.066-.708H2.369a.808.808,0,1,1,0-1.615H6.335l.135-.612a9.353,9.353,0,0,1,1.037-2.666L8.186,50.1H4.139a.808.808,0,1,1,0-1.615H9.957l.2-.148a9.353,9.353,0,0,1,5.51-1.779H15.7a9.424,9.424,0,0,1-.026,18.849Z" transform="translate(0 0)"/>
    <path id="Path_41" data-name="Path 41" d="M287.562,171H286v5.207h3.749v-1.562h-2.187Z" transform="translate(-271.109 -119.44)"/>
  </g>
</svg>
