<svg xmlns="http://www.w3.org/2000/svg" width="19.336" height="22" viewBox="0 0 19.336 22">
  <g id="user" transform="translate(-31)">
    <g id="Group_23" data-name="Group 23" transform="translate(34.868)">
      <path id="Path_42" data-name="Path 42" d="M126.8,0a5.8,5.8,0,1,0,5.8,5.8A5.8,5.8,0,0,0,126.8,0Z" transform="translate(-121)"/>
    </g>
    <g id="Group_24" data-name="Group 24" transform="translate(31 12.891)">
      <path id="Path_43" data-name="Path 43" d="M47.886,302.5a8.274,8.274,0,0,0-5.929-2.5H39.384a8.275,8.275,0,0,0-5.93,2.5A8.454,8.454,0,0,0,31,308.465a.644.644,0,0,0,.644.644H49.691a.644.644,0,0,0,.644-.644,8.454,8.454,0,0,0-2.45-5.964Z" transform="translate(-31 -300)"/>
    </g>
  </g>
</svg>
